<?xml version="1.0" standalone="no"?>
<!DOCTYPE svg PUBLIC "-//W3C//DTD SVG 20010904//EN"
 "http://www.w3.org/TR/2001/REC-SVG-20010904/DTD/svg10.dtd">
<svg version="1.0" xmlns="http://www.w3.org/2000/svg"
 width="100.000000pt" height="100.000000pt" viewBox="0 0 100.000000 100.000000"
 preserveAspectRatio="xMidYMid meet">

<g transform="translate(0.000000,100.000000) scale(0.100000,-0.100000)"
fill="#256d3e" stroke="none">
<path d="M680 1494 c-121 -21 -154 -30 -217 -55 -212 -88 -375 -275 -435 -497
-28 -107 -28 -277 1 -385 35 -132 92 -229 196 -332 153 -153 311 -218 525
-219 213 0 373 66 525 219 152 152 219 312 219 525 0 213 -67 373 -219 526
-76 76 -105 97 -185 137 -52 25 -124 53 -160 61 -70 16 -209 27 -250 20z m127
-147 c3 -4 33 -7 65 -7 76 0 107 -26 100 -83 -4 -33 -7 -37 -26 -31 -19 6 -19
5 -7 -10 8 -9 11 -19 8 -22 -10 -10 -45 15 -52 37 -6 19 -8 18 -23 -13 -23
-45 -53 -51 -47 -9 4 37 -7 46 -37 30 -30 -16 -108 -28 -108 -17 0 5 11 13 24
18 31 11 42 30 26 40 -11 7 -10 15 3 42 12 26 22 33 41 33 14 -1 29 -5 33 -8z
m-168 -41 c66 -19 67 -39 2 -51 -21 -4 -30 -2 -26 5 3 6 -4 10 -17 10 -18 0
-20 2 -8 10 12 8 12 10 -3 16 -20 7 -23 24 -4 24 6 0 32 -6 56 -14z m395 -12
c9 -3 16 -14 16 -24 0 -10 6 -20 14 -23 9 -4 12 -14 9 -26 -6 -25 -18 -27 -27
-6 -3 8 -11 15 -18 15 -8 0 -13 14 -14 35 0 19 1 35 2 35 1 0 9 -3 18 -6z
m-482 -31 c29 -26 23 -46 -11 -38 -21 4 -30 2 -34 -9 -5 -11 0 -16 13 -16 23
0 27 -18 6 -26 -8 -3 -12 -12 -9 -20 3 -8 0 -14 -6 -14 -6 0 -8 -6 -6 -12 6
-14 -100 -18 -145 -5 -17 5 -37 0 -65 -16 -39 -22 -55 -45 -72 -101 -4 -16
-14 -31 -20 -33 -15 -5 -7 48 13 88 14 29 79 89 95 89 5 0 16 15 24 33 19 46
34 56 112 77 86 23 83 23 105 3z m102 -95 c-9 -9 -13 -22 -9 -27 3 -6 2 -11
-4 -11 -5 0 -11 6 -14 13 -2 7 -11 -1 -21 -18 -14 -25 -16 -26 -12 -7 4 19 2
21 -9 12 -20 -16 -40 -3 -24 16 6 8 8 14 5 14 -4 0 0 7 9 16 10 10 24 14 39
10 17 -4 26 -1 30 11 6 15 8 15 16 3 6 -10 4 -20 -6 -32z m527 11 c9 -17 8
-23 -2 -30 -11 -7 -12 -12 -1 -29 16 -27 15 -65 -3 -80 -11 -9 -12 -16 -5 -25
8 -9 6 -14 -6 -19 -10 -4 -20 -2 -23 3 -4 6 -14 6 -27 -2 -92 -53 -92 -53 -75
-19 5 9 13 28 18 42 6 14 22 49 36 79 l26 53 -22 20 -22 19 22 -6 c13 -3 31
-2 40 4 26 15 31 14 44 -10z m-141 -26 c30 -38 22 -57 -24 -63 -36 -5 -41 -9
-55 -48 -12 -34 -13 -47 -3 -62 17 -28 16 -30 -20 -26 -18 3 -36 5 -40 5 -5 1
-8 14 -8 30 0 25 -4 29 -37 34 -21 4 -50 9 -65 13 -27 6 -28 4 -28 -29 0 -19
6 -37 13 -40 21 -7 2 -17 -21 -10 -15 4 -25 16 -29 34 -6 34 -11 35 -29 12 -9
-13 -9 -22 -2 -30 8 -10 5 -13 -11 -13 -25 0 -38 39 -22 68 19 35 12 47 -12
24 -13 -12 -28 -22 -34 -22 -17 0 -44 30 -38 41 9 13 25 11 22 -2 -3 -14 14
-21 29 -11 6 4 23 26 37 48 30 48 59 56 141 41 37 -6 60 -6 86 4 19 7 53 16
75 20 22 3 43 7 47 8 4 0 16 -11 28 -26z m-530 -71 c40 -19 48 -42 25 -66 -9
-9 -13 -21 -9 -27 3 -6 0 -15 -7 -20 -19 -12 -42 -11 -34 1 4 6 -6 7 -26 3
-23 -4 -30 -3 -25 6 9 14 -31 9 -62 -8 -12 -6 -36 -11 -54 -11 -32 1 -32 1
-13 16 l20 16 -20 -3 c-33 -6 -47 9 -33 34 33 63 165 96 238 59z m768 -30 c2
-7 15 -25 27 -38 13 -14 21 -32 19 -39 -7 -17 -50 -25 -63 -12 -6 6 -11 7 -11
1 -1 -5 -8 9 -16 31 -29 75 -29 73 7 71 18 -1 34 -7 37 -14z m-863 -161 c45
-20 92 -70 101 -107 4 -14 4 -49 2 -78 -9 -111 -82 -161 -233 -159 -50 1 -102
6 -117 12 l-28 11 0 159 0 160 33 10 c59 17 198 13 242 -8z m243 7 c5 -7 13
-38 17 -68 13 -95 19 -98 39 -18 11 40 23 79 29 86 5 6 31 12 58 12 l48 0 15
-51 c9 -28 18 -66 22 -85 8 -45 12 -40 24 32 20 113 12 104 89 104 37 0 70 -2
73 -5 3 -3 -17 -84 -45 -181 l-50 -175 -71 3 -71 3 -17 50 c-9 28 -19 59 -23
70 -5 15 -11 5 -25 -42 -10 -34 -21 -67 -25 -72 -3 -6 -37 -11 -74 -11 l-68 0
-50 175 c-28 96 -48 177 -45 180 11 11 140 5 150 -7z m700 -35 l3 -43 -54 0
c-52 0 -54 -1 -49 -25 4 -22 9 -25 48 -25 l44 0 0 -40 0 -40 -45 0 -44 0 -3
-67 -3 -68 -80 0 -80 0 -3 165 c-1 90 0 170 3 177 3 11 34 13 132 11 l128 -3
3 -42z m-595 -355 c4 -10 8 -9 16 2 10 13 13 12 27 -5 23 -31 27 -61 13 -95
-17 -37 -22 -37 -37 -5 -12 27 -40 32 -74 14 -23 -13 -24 -12 -33 23 -6 22 -1
30 31 52 44 29 50 31 57 14z m261 -2 c18 -7 43 -27 54 -44 12 -16 41 -37 64
-47 24 -9 53 -26 66 -38 23 -22 30 -57 10 -57 -6 0 -8 3 -5 6 14 14 -17 46
-61 65 -25 11 -69 21 -97 23 -28 1 -57 6 -64 10 -6 4 -17 4 -24 -1 -28 -21
-58 -13 -72 20 -12 29 -11 33 7 46 12 8 35 17 52 22 17 4 32 7 34 8 1 1 18 -5
36 -13z m276 -6 c0 -4 -7 -13 -15 -20 -13 -11 -13 -15 -3 -21 9 -6 3 -9 -17
-9 -22 0 -26 -3 -15 -10 8 -5 12 -11 10 -13 -8 -8 -73 7 -95 20 -20 13 -20 13
-1 28 11 8 29 15 40 15 12 0 32 6 46 13 25 13 50 12 50 -3z m-950 2 c0 -5 20
-32 45 -61 51 -59 52 -77 6 -117 -22 -20 -28 -21 -37 -8 -10 13 -13 12 -18 -3
-7 -17 -8 -17 -18 0 -7 13 -7 22 1 30 18 18 13 29 -8 17 -22 -11 -61 -14 -61
-3 0 4 9 17 21 29 l20 22 -30 10 c-17 6 -41 20 -53 32 l-23 21 43 -7 c36 -6
41 -4 37 9 -4 10 3 18 22 25 35 13 53 14 53 4z m154 -23 c14 -17 26 -42 26
-55 0 -14 5 -34 10 -44 8 -15 7 -18 -3 -14 -9 3 -13 -5 -12 -27 0 -52 -21 -45
-24 8 -1 32 -10 55 -27 75 -13 16 -24 36 -24 44 0 8 -5 14 -11 14 -8 0 -8 5 1
15 19 22 35 18 64 -16z m85 20 c18 -6 30 -16 28 -23 -7 -20 -38 -18 -58 3 -32
34 -24 39 30 20z m56 -66 c-2 -16 -5 -33 -7 -40 -1 -6 19 -31 45 -55 38 -33
49 -50 49 -73 1 -59 7 -72 47 -89 39 -18 113 -19 156 -1 19 8 19 7 2 -11 -15
-16 -32 -19 -102 -19 -72 0 -88 3 -116 24 l-32 24 7 -27 6 -26 -62 2 c-60 1
-61 1 -18 7 32 4 46 11 48 24 2 9 -1 17 -7 17 -6 0 -11 -7 -11 -15 0 -11 -12
-15 -49 -15 -28 0 -53 4 -56 10 -4 6 12 10 39 10 33 0 46 4 46 14 0 8 -4 18
-10 21 -5 3 -10 13 -10 21 0 9 -7 22 -15 30 -11 11 -13 31 -10 75 3 38 1 58
-5 54 -23 -14 -8 11 23 36 41 35 47 36 42 2z m471 -112 c-20 -7 -36 -18 -36
-23 0 -10 42 -28 53 -21 4 2 7 -1 7 -8 0 -11 -24 -9 -65 6 -16 5 -15 3 5 -14
20 -16 21 -21 8 -21 -9 0 -20 5 -23 11 -14 22 -49 27 -77 11 -25 -14 -25 -17
-10 -29 16 -13 3 -14 -65 -3 -2 0 -3 7 -3 15 0 14 -3 14 -24 0 -19 -13 -29
-14 -45 -5 -28 14 -27 22 2 15 19 -5 28 1 50 34 35 53 65 72 140 86 60 11 63
11 90 -14 l29 -26 -36 -14z m-263 22 c-4 -10 -2 -14 5 -9 6 3 13 2 17 -4 4 -6
-4 -10 -18 -10 -14 0 -39 -13 -57 -30 -18 -16 -34 -30 -36 -30 -10 0 -2 25 13
42 13 14 13 18 2 18 -16 1 50 39 68 40 7 0 10 -7 6 -17z m-377 -79 c5 -20 9
-22 20 -13 16 13 30 6 19 -10 -3 -6 -17 -11 -30 -11 -13 0 -26 -6 -28 -12 -3
-8 -6 -6 -6 5 -1 19 -16 23 -26 7 -3 -5 -11 -10 -17 -10 -7 0 -6 6 2 15 9 10
9 15 1 15 -6 0 -11 7 -11 16 0 8 5 12 10 9 6 -3 10 -3 10 2 0 4 11 9 25 9 19
2 27 -4 31 -22z"/>
<path d="M470 1150 c0 -5 5 -10 10 -10 6 0 10 5 10 10 0 6 -4 10 -10 10 -5 0
-10 -4 -10 -10z"/>
<path d="M300 736 c0 -99 9 -121 38 -92 21 21 27 123 10 156 -8 14 -21 26 -31
28 -15 3 -17 -7 -17 -92z"/>
</g>
</svg>
